PathFileType	4	(X/Y/Z)	C:\Users\Basilio\Documents\Thesis Gigler\squatting_fais\c3dfiles\019\SLS_back_pre4\markers_experimental.trc
DataRate	CameraRate	NumFrames	NumMarkers	Units	OrigDataRate	OrigDataStartFrame	OrigNumFrames
200.000000	200.000000	4	59	mm	200.000000	698	1397
Frame#	Time	FHD			LBHD			RBHD			C7			T10			CLAV			LSHO			LUUPA			LMUPA			LDUPA			LLEP			LMEP			LRAD			LUL			LRFIN			RSHO			RUPA1			RMUPA			RDUPA			RLEP			RMEP			RRAD			RUL			RUFIN			LASI			RASI			USACR			LSACR			RSACR			LTHI1			LTHI2			LTHI3			LTHI4			LLFC			LTIB1			LTIB2			LTIB3			LTIB4			LLMAL			LMMAL			LHEE			LMT1			LMT2			LMT5			RTHI2			RTHI4			RLFC			RTIB1			RTIB2			RTIB3			RTIB4			RLMAL			RMMAL			RHEE			RMT1			RMT2			RMT5			RTHI3			RTHI			
		X1	Y1	Z1	X2	Y2	Z2	X3	Y3	Z3	X4	Y4	Z4	X5	Y5	Z5	X6	Y6	Z6	X7	Y7	Z7	X8	Y8	Z8	X9	Y9	Z9	X10	Y10	Z10	X11	Y11	Z11	X12	Y12	Z12	X13	Y13	Z13	X14	Y14	Z14	X15	Y15	Z15	X16	Y16	Z16	X17	Y17	Z17	X18	Y18	Z18	X19	Y19	Z19	X20	Y20	Z20	X21	Y21	Z21	X22	Y22	Z22	X23	Y23	Z23	X24	Y24	Z24	X25	Y25	Z25	X26	Y26	Z26	X27	Y27	Z27	X28	Y28	Z28	X29	Y29	Z29	X30	Y30	Z30	X31	Y31	Z31	X32	Y32	Z32	X33	Y33	Z33	X34	Y34	Z34	X35	Y35	Z35	X36	Y36	Z36	X37	Y37	Z37	X38	Y38	Z38	X39	Y39	Z39	X40	Y40	Z40	X41	Y41	Z41	X42	Y42	Z42	X43	Y43	Z43	X44	Y44	Z44	X45	Y45	Z45	X46	Y46	Z46	X47	Y47	Z47	X48	Y48	Z48	X49	Y49	Z49	X50	Y50	Z50	X51	Y51	Z51	X52	Y52	Z52	X53	Y53	Z53	X54	Y54	Z54	X55	Y55	Z55	X56	Y56	Z56	X57	Y57	Z57	X58	Y58	Z58	X59	Y59	Z59	

699	3.49	-78.89859008789064	1460.966918945313	-650.1081542968751	-208.2762756347657	1432.435913085938	-793.049011230469	-212.1614837646485	1427.581176757813	-653.2200317382814	-264.6849365234376	1287.51171875	-709.0593261718751	-416.0066528320314	1050.5146484375	-718.9436035156251	-149.2579498291016	1200.517578125	-717.6354370117189	-189.4646759033203	1273.610595703125	-845.3375244140627	-75.91097259521486	1220.175659179688	-899.9774169921877	-52.34731674194337	1211.183227539063	-857.2752685546877	-11.58965587615967	1203.251953125	-901.3854980468752	51.933895111084	1154.6083984375	-928.9817504882815	38.3185043334961	1100.168579101563	-909.705261230469	289.1358032226563	1148.680786132813	-842.4042968750002	293.5505676269532	1100.659545898438	-887.1160278320315	362.5064392089844	1161.052490234375	-845.555603027344	-174.398681640625	1266.385009765625	-598.4768066406251	-70.97006225585939	1180.560668945313	-493.8024291992189	-42.29260635375977	1204.910278320313	-529.6696166992189	-5.174830913543702	1165.549194335938	-500.6069946289064	69.89600372314455	1145.248657226563	-514.8411865234376	52.23216629028322	1093.45947265625	-530.8192749023439	304.8280334472657	1164.350830078125	-600.9894409179689	320.2877197265626	1116.095581054688	-554.9417114257814	391.7478027343751	1167.759643554688	-595.0738525390626	-382.3036193847657	807.3742675781252	-846.4947509765627	-364.2033081054688	805.608825683594	-644.1729736328126	-486.423553466797	933.617126464844	-731.8221435546876	-507.6868591308595	908.442321777344	-759.1231689453126	-503.5851440429689	905.5574951171877	-701.5798339843751	-451.3421936035157	573.1204833984376	-933.1702270507815	-403.6944885253907	501.0291137695314	-937.4829711914065	-360.1268310546876	506.7240600585939	-919.9299316406252	-424.9852294921876	443.4621582031251	-931.102478027344	-430.9447021484376	363.2021179199219	-914.1489257812502	-529.0088500976564	267.5575256347657	-875.4705810546877	-585.5127563476564	316.8753356933594	-931.287292480469	-581.0840454101564	282.7770996093751	-905.527038574219	-657.7000732421876	272.2246093750001	-865.2875976562502	-799.4194335937502	321.9540710449219	-892.3081665039065	-782.0244750976565	314.0354309082032	-808.1636962890627	-844.1572265625002	382.3443298339844	-846.2339477539065	-831.7625122070315	168.6201477050782	-798.7119750976565	-842.584167480469	166.3413543701172	-839.9378051757815	-876.0918579101565	199.4478149414063	-891.6668701171877	-306.0048217773438	650.9238891601564	-585.4904785156251	-269.1631774902344	576.1725463867189	-590.0801391601564	-200.7330322265626	448.1342773437501	-642.6116333007814	-216.4320220947266	283.0575561523438	-722.3621215820314	-292.5080566406251	223.0109252929688	-667.2107543945314	-264.1813659667969	208.5237731933594	-704.9589233398439	-295.2604980468751	186.2328338623047	-749.0563354492189	-381.1608276367188	124.0258026123047	-702.1164550781251	-365.6416015625001	134.9049987792969	-780.053405761719	-456.2079162597657	106.0180130004883	-758.8942260742189	-257.2764892578126	57.33788299560548	-786.471130371094	-252.1228485107422	59.07144165039064	-740.7327880859376	-292.1604614257813	46.87084579467774	-686.3352050781251	-291.0205383300782	676.6197509765626	-605.0257568359376	-369.3801574707032	662.3023071289064	-569.6454467773439	
700	3.495	-78.45384216308595	1459.767700195313	-650.2563476562501	-208.3920440673829	1431.395141601563	-793.209655761719	-211.677963256836	1426.170776367188	-653.3914794921876	-263.7805786132813	1286.438842773438	-709.2254028320314	-415.609588623047	1049.569091796875	-719.0679321289064	-148.8994293212891	1199.385009765625	-717.7141723632814	-188.9035797119141	1272.555297851563	-845.3634033203127	-75.38203430175783	1219.190673828125	-899.9916992187502	-51.70804595947267	1210.240112304688	-857.3251953125002	-10.93222236633301	1202.354125976563	-901.3238525390627	52.31108856201173	1153.96630859375	-928.9787597656252	39.05885696411134	1099.252075195313	-909.653503417969	289.6236572265626	1148.15576171875	-842.3437500000002	294.2566223144532	1100.03955078125	-887.0164794921877	363.1193237304688	1160.379150390625	-845.4343872070315	-173.8724517822266	1264.845092773438	-598.3873291015626	-70.81497192382814	1179.689819335938	-496.9558410644532	-41.70275878906251	1203.956665039063	-529.5875854492189	-4.451985359191895	1164.859741210938	-500.4961242675782	70.5946502685547	1144.885864257813	-514.7172241210939	52.87022018432619	1092.66357421875	-530.6771240234376	305.3955993652344	1163.918212890625	-600.7698974609376	320.9198608398438	1115.703735351563	-554.7031250000001	391.8317260742189	1167.5146484375	-595.5589599609376	-382.6598815917969	806.6221923828127	-846.664245605469	-364.4145812988282	804.7871704101565	-644.3925170898439	-486.3310546875001	932.8247070312502	-731.9596557617189	-507.7774658203126	907.636901855469	-759.2869262695314	-503.6976013183595	904.7863769531252	-701.6522827148439	-451.4983215332032	572.2498168945314	-933.0800781250002	-404.0967407226564	500.3099975585939	-937.190612792969	-360.2872009277344	505.9003295898439	-919.6510009765627	-425.2066955566407	442.6184692382814	-930.8604125976565	-431.0437622070314	362.2955017089844	-913.9379882812502	-529.3808593750001	266.8331909179688	-875.4551391601565	-585.8328857421876	316.1480712890626	-931.3091430664065	-581.7534790039064	282.4348144531251	-905.605407714844	-658.6343383789064	271.8254089355469	-866.0876464843752	-799.6513671875002	321.4584350585938	-892.6243286132815	-782.4042968750002	313.7932739257813	-808.4205322265627	-844.4231567382815	382.0385742187501	-846.7742919921877	-832.3909912109377	168.4735565185547	-798.566833496094	-843.1680908203127	166.0911865234375	-839.7128906250002	-876.484069824219	199.0183715820313	-891.694030761719	-306.0898132324219	650.6272583007814	-585.6951293945314	-269.0977478027344	575.8679199218751	-590.2659912109376	-200.4047241210938	447.9983520507814	-642.8276977539064	-216.1842193603516	282.8993530273438	-722.5093383789064	-292.3127136230469	222.982406616211	-667.3644409179689	-264.0690612792969	208.4198608398438	-705.0311279296876	-295.1806030273438	186.223617553711	-749.1558837890626	-381.1813354492188	124.0639266967774	-702.0978393554689	-365.5166015625001	134.8677368164063	-780.0525512695315	-456.1387329101564	105.9801635742188	-758.9039916992189	-257.2754211425782	57.1927947998047	-786.4713134765627	-252.1494293212891	59.11340332031251	-740.7567138671876	-292.1601257324219	46.86926651000977	-686.3479614257814	-291.1886596679688	676.2309570312501	-605.2235717773439	-369.4697875976563	661.6747436523439	-569.6975097656251	
701	3.5	-78.00000762939455	1458.537475585938	-650.3437500000001	-207.7707824707032	1430.214477539063	-793.2512817382815	-211.2380981445313	1425.049072265625	-653.4509887695314	-263.3851928710938	1285.355102539063	-709.3760986328126	-415.4678649902345	1048.70556640625	-719.1597900390626	-148.680908203125	1198.102661132813	-717.8439331054689	-188.4720611572266	1271.430053710938	-845.3638916015627	-74.78212738037111	1218.200317382813	-900.035827636719	-51.19949340820314	1209.258666992188	-857.328063964844	-10.46187686920166	1201.4052734375	-901.3862304687502	53.15322494506837	1152.981689453125	-928.9082641601565	39.73253250122071	1098.431640625	-909.6602783203127	290.0829467773438	1147.645385742188	-842.2190551757815	294.8748168945313	1099.419311523438	-886.9514160156252	363.6510620117188	1160.006469726563	-845.293884277344	-173.3623352050782	1264.084350585938	-598.7387084960939	-70.37712860107423	1178.777954101563	-497.023651123047	-41.16018295288087	1203.101928710938	-529.6093750000001	-3.889185667037965	1164.005615234375	-500.4591064453126	70.99636077880861	1144.261596679688	-514.6127929687501	53.44728469848634	1092.0556640625	-530.6168212890626	305.9182739257813	1163.480224609375	-600.5692749023439	321.4116516113282	1115.35302734375	-554.5405883789064	392.4179077148439	1166.911987304688	-595.6431274414064	-383.0419311523438	805.857360839844	-846.7604980468752	-364.6042480468751	803.9597167968752	-644.5679931640626	-486.476287841797	931.9855957031252	-732.0026245117189	-507.9026794433595	906.9612426757815	-759.3191528320314	-503.8668212890626	904.052185058594	-701.7717895507814	-451.6393432617189	571.3689575195314	-932.934753417969	-404.3940734863282	499.545379638672	-937.0509033203127	-360.5708618164063	505.1180725097657	-919.4145507812502	-425.3565368652345	441.7042236328126	-930.6271972656252	-431.180633544922	361.5028686523438	-913.683532714844	-529.6804809570314	266.1092224121094	-875.2326660156252	-585.8718872070314	315.3966369628907	-931.1504516601565	-582.0203857421876	281.7528991699219	-905.436950683594	-659.0313110351564	271.3939208984376	-866.002380371094	-799.8545532226565	320.9700927734376	-892.9141845703127	-782.7532348632815	313.5108642578126	-808.668640136719	-844.6911621093752	381.7384948730469	-847.2512207031252	-832.8785400390627	168.3123474121094	-798.427185058594	-843.6992797851565	165.8470916748047	-839.529724121094	-876.8403320312502	198.5525054931641	-891.605895996094	-306.1884155273438	650.2221679687501	-585.8296508789064	-269.0286560058594	575.5505371093751	-590.4458618164064	-200.1452789306641	447.9231872558595	-643.0324707031251	-216.0258026123047	282.8700866699219	-722.7240600585939	-292.2300109863282	223.0478820800782	-667.5261230468751	-263.9068908691407	208.3734130859376	-705.2299194335939	-295.1344909667969	186.2184295654297	-749.2570190429689	-381.1453552246094	124.1257019042969	-702.1660156250001	-365.4709167480469	134.8503875732422	-780.0506591796877	-456.1216125488282	106.0044326782227	-758.9000244140626	-257.2695312500001	57.21176910400392	-786.4094238281252	-252.1165771484376	59.07916259765626	-740.7288818359376	-292.1728820800782	46.88459777832032	-686.2944946289064	-291.3565673828126	675.9080810546876	-605.4309082031251	-369.5626525878907	661.0211181640626	-569.9594116210939	
702	3.505	-77.5547561645508	1457.429565429688	-650.4842529296876	-206.7828521728516	1428.857543945313	-793.3546142578127	-210.8479461669922	1424.026733398438	-653.5923461914064	-263.0261535644532	1284.357666015625	-709.4696044921876	-415.3862915039064	1047.930908203125	-719.1686401367189	-148.2378692626953	1197.01513671875	-717.9616699218751	-187.9570770263672	1270.387573242188	-845.3548583984377	-74.31306457519533	1217.288696289063	-899.9945068359377	-50.83863449096681	1208.331909179688	-857.3721313476565	-10.00535774230957	1200.532836914063	-901.3586425781252	53.70118331909181	1152.135375976563	-928.9688110351565	40.40044403076173	1097.582763671875	-909.6857910156252	290.7097778320313	1147.025512695313	-842.122009277344	295.5043334960938	1098.821899414063	-886.8465576171877	364.1099853515626	1159.41455078125	-845.168395996094	-169.033935546875	1266.37158203125	-596.8933715820314	-69.87747192382814	1177.949462890625	-496.9592590332032	-40.59612655639649	1202.096069335938	-529.6361083984376	-3.426542520523072	1163.30712890625	-500.4532470703126	71.40174865722658	1143.345581054688	-514.5449829101564	54.05974578857423	1091.143798828125	-530.7169799804689	306.4368896484376	1163.049560546875	-600.3510131835939	322.0287170410157	1114.95166015625	-554.2289428710939	392.9856567382814	1166.376831054688	-595.2309570312501	-383.3841247558594	805.0894165039065	-846.9417114257815	-364.7283630371094	803.1604614257815	-644.6724243164064	-486.5997924804689	931.1929931640627	-732.0758666992189	-507.986297607422	906.2333984375002	-759.3560180664064	-503.8947143554689	903.3505859375002	-701.6283569335939	-452.0574035644532	570.6939086914064	-932.8593750000002	-404.6311340332032	498.7687988281251	-936.8994750976565	-360.8594055175782	504.3151855468751	-919.1436157226565	-425.5751953125001	440.948455810547	-930.4152832031252	-431.4891357421876	360.7448425292969	-913.3995361328127	-529.1126098632814	266.4826660156251	-872.9949340820315	-586.1459350585939	314.7201538085938	-930.9545898437502	-582.3954467773439	281.0244140625001	-905.3238525390627	-659.4307250976564	271.1072082519532	-866.0214843750002	-800.1796875000002	320.5033874511719	-893.177673339844	-783.1033325195315	313.2390441894532	-808.8272705078127	-845.043395996094	381.4978637695313	-847.7463989257815	-833.4123535156252	168.1900787353516	-798.3529052734377	-844.2227783203127	165.6233673095703	-839.3288574218752	-877.3115234375002	198.137191772461	-891.6731567382815	-306.2906494140626	649.8618164062501	-586.0676879882814	-268.9130859375001	575.3115844726564	-590.5897827148439	-199.8713684082032	447.7218322753907	-643.3566894531251	-215.9085845947266	282.8240356445313	-722.8792724609376	-292.0021667480469	222.9916687011719	-667.5953369140626	-263.7068786621094	208.2518157958985	-705.3804931640626	-295.0782165527344	186.1333465576172	-749.4051513671876	-381.0857543945313	124.1055297851563	-702.2062377929689	-365.3945922851563	134.8418579101563	-780.1317138671877	-456.1251831054689	106.0035705566407	-758.8986816406251	-257.2796325683594	57.1201629638672	-786.4397583007815	-252.1568298339844	59.06658172607423	-740.7413940429689	-292.1542053222657	46.96627044677735	-686.3211669921876	-291.5821228027344	675.5693359375001	-605.5841064453126	-369.7080688476563	660.6401367187501	-570.0371704101564	
